<svg width="80" height="80" viewBox="0 0 80 80" xmlns="http://www.w3.org/2000/svg">
  <defs>
    <path id="bottomArc" d="M 10,58 A 32,32 0 0,0 70,58" />
    <path id="topArc" d="M 16,28 A 27,27 0 0,1 64,28" />
  </defs>

  <circle cx="40" cy="40" r="38" fill="#1a3a5c" stroke="#c8a84b" stroke-width="2.5" />
  <circle cx="40" cy="40" r="33" fill="none" stroke="rgba(200,168,75,0.4)" stroke-width="1" />

  <rect x="39" y="27" width="2" height="4" fill="#c8a84b" />
  <ellipse cx="40" cy="23" rx="3" ry="5" fill="#c8a84b" />
  <ellipse cx="40" cy="24" rx="1.5" ry="3" fill="white" opacity="0.6" />

  <path d="M 40,30 C 35,30 22,33 22,34 L 22,48 L 40,48 Z" fill="rgba(255,255,255,0.15)" stroke="white" stroke-width="1.2" stroke-linejoin="round" />
  <path d="M 40,30 C 45,30 58,33 58,34 L 58,48 L 40,48 Z" fill="rgba(255,255,255,0.15)" stroke="white" stroke-width="1.2" stroke-linejoin="round" />
  <line x1="40" y1="30" x2="40" y2="48" stroke="white" stroke-width="1.5" />

  <line x1="25" y1="37" x2="38" y2="37" stroke="rgba(255,255,255,0.5)" stroke-width="0.8" />
  <line x1="25" y1="40" x2="38" y2="40" stroke="rgba(255,255,255,0.5)" stroke-width="0.8" />
  <line x1="25" y1="43" x2="38" y2="43" stroke="rgba(255,255,255,0.5)" stroke-width="0.8" />
  <line x1="42" y1="37" x2="55" y2="37" stroke="rgba(255,255,255,0.5)" stroke-width="0.8" />
  <line x1="42" y1="40" x2="55" y2="40" stroke="rgba(255,255,255,0.5)" stroke-width="0.8" />
  <line x1="42" y1="43" x2="55" y2="43" stroke="rgba(255,255,255,0.5)" stroke-width="0.8" />

  <text font-size="4.8" fill="rgba(255,255,255,0.7)" letter-spacing="1.2" text-anchor="middle" font-family="sans-serif">
    <textPath href="#topArc" startOffset="50%">EST. 1993</textPath>
  </text>
  <text font-size="5" fill="#c8a84b" letter-spacing="0.3" text-anchor="middle" font-family="sans-serif">
    <textPath href="#bottomArc" startOffset="50%">SHOOLINI UNIVERSITY</textPath>
  </text>
</svg>
